<svg width="24" height="24" viewBox="0 0 24 24" fill="none"
    xmlns="http://www.w3.org/2000/svg">
    <path d="M15.4636 19C15.4636 20.6569 14.1204 22 12.4636 22C10.8067 22 9.46359 20.6569 9.46359 19M14.2601 6.23856C14.6956 5.78864 14.9636 5.17562 14.9636 4.5C14.9636 3.11929 13.8443 2 12.4636 2C11.0829 2 9.96359 3.11929 9.96359 4.5C9.96359 5.17562 10.2316 5.78864 10.6671 6.23856M18.4636 11.2C18.4636 9.82087 17.8314 8.49823 16.7062 7.52304C15.581 6.54786 14.0549 6 12.4636 6C10.8723 6 9.34617 6.54786 8.22095 7.52304C7.09573 8.49823 6.46359 9.82087 6.46359 11.2C6.46359 13.4818 5.89772 15.1506 5.19165 16.3447C4.38693 17.7056 3.98456 18.3861 4.00045 18.5486C4.01863 18.7346 4.0521 18.7933 4.20293 18.9036C4.33476 19 4.9971 19 6.32178 19H18.6054C19.9301 19 20.5924 19 20.7242 18.9036C20.8751 18.7933 20.9085 18.7346 20.9267 18.5486C20.9426 18.3861 20.5403 17.7056 19.7355 16.3447C19.0295 15.1506 18.4636 13.4818 18.4636 11.2Z" stroke="#404059" stroke-width="2" stroke-linecap="round" stroke-linejoin="round"/>
    <circle cx="21.5" cy="3.5" r="2.5" fill="#D53636"/>
</svg>
