<svg width="22" height="22" viewBox="0 0 22 22" fill="none"
    xmlns="http://www.w3.org/2000/svg">
    <path d="M18.425 9.35H3.575M14.3 2.75V6.05M7.7 2.75V6.05M7.535 19.25H14.465C15.8511 19.25 16.5442 19.25 17.0736 18.9802C17.5393 18.743 17.918 18.3643 18.1552 17.8986C18.425 17.3692 18.425 16.6761 18.425 15.29V8.36C18.425 6.97387 18.425 6.2808 18.1552 5.75137C17.918 5.28567 17.5393 4.90705 17.0736 4.66976C16.5442 4.4 15.8511 4.4 14.465 4.4H7.535C6.14887 4.4 5.4558 4.4 4.92637 4.66976C4.46067 4.90705 4.08204 5.28567 3.84476 5.75137C3.575 6.2808 3.575 6.97387 3.575 8.36V15.29C3.575 16.6761 3.575 17.3692 3.84476 17.8986C4.08204 18.3643 4.46067 18.743 4.92637 18.9802C5.4558 19.25 6.14887 19.25 7.535 19.25Z" stroke="white" stroke-opacity="0.75" stroke-width="1.5" stroke-linecap="round" stroke-linejoin="round"/>
</svg>
