<svg width="150" height="150" viewBox="0 0 150 150" fill="none"
    xmlns="http://www.w3.org/2000/svg">
    <path d="M150 75C150 116.421 116.421 150 75 150C33.5786 150 0 116.421 0 75C0 33.5786 33.5786 0 75 0C116.421 0 150 33.5786 150 75ZM18.75 75C18.75 106.066 43.934 131.25 75 131.25C106.066 131.25 131.25 106.066 131.25 75C131.25 43.934 106.066 18.75 75 18.75C43.934 18.75 18.75 43.934 18.75 75Z" fill="#151B38"/>
    <path d="M146.329 51.8237C151.224 66.887 151.224 83.1131 146.329 98.1763C141.435 113.24 131.897 126.367 119.084 135.676C106.27 144.986 90.8383 150 74.9998 150C59.1614 150 43.7295 144.986 30.9159 135.676C18.1024 126.366 8.56496 113.239 3.67067 98.176C-1.22363 83.1127 -1.22355 66.8866 3.67087 51.8234C8.5653 36.7601 18.1028 23.633 30.9164 14.3235C43.7301 5.01393 59.162 -0.000101137 75.0005 1.52912e-09L75.0004 18.75C63.1215 18.7499 51.5476 22.5105 41.9373 29.4926C32.3271 36.4748 25.174 46.3201 21.5032 57.6175C17.8323 68.915 17.8323 81.0845 21.503 92.382C25.1737 103.679 32.3268 113.525 41.9369 120.507C51.5471 127.489 63.121 131.25 74.9999 131.25C86.8787 131.25 98.4526 127.489 108.063 120.507C117.673 113.525 124.826 103.68 128.497 92.3822C132.168 81.0848 132.168 68.9153 128.497 57.6178L146.329 51.8237Z" fill="#27C499"/>
    <path d="M56.08 82V80.02C57.1 79.384 57.97 78.79 58.69 78.238C59.41 77.686 59.992 77.164 60.436 76.672C60.892 76.18 61.228 75.712 61.444 75.268C61.66 74.824 61.768 74.392 61.768 73.972C61.768 73.516 61.63 73.138 61.354 72.838C61.09 72.526 60.694 72.37 60.166 72.37C59.602 72.37 59.164 72.58 58.852 73C58.54 73.408 58.372 74.008 58.348 74.8L55.702 73.99C55.726 73.102 55.936 72.358 56.332 71.758C56.74 71.158 57.292 70.708 57.988 70.408C58.684 70.096 59.476 69.94 60.364 69.94C61.144 69.94 61.816 70.054 62.38 70.282C62.956 70.498 63.424 70.792 63.784 71.164C64.144 71.524 64.408 71.932 64.576 72.388C64.756 72.832 64.846 73.288 64.846 73.756C64.846 74.524 64.648 75.244 64.252 75.916C63.856 76.576 63.28 77.218 62.524 77.842C61.78 78.454 60.874 79.072 59.806 79.696V79.714C60.01 79.702 60.25 79.69 60.526 79.678C60.802 79.666 61.09 79.66 61.39 79.66C61.69 79.648 61.96 79.642 62.2 79.642H64.99V82H56.08ZM71.5187 82.18C69.8987 82.18 68.6687 81.664 67.8287 80.632C67.0007 79.6 66.5867 78.076 66.5867 76.06C66.5867 74.044 67.0007 72.52 67.8287 71.488C68.6687 70.456 69.8987 69.94 71.5187 69.94C73.1387 69.94 74.3627 70.456 75.1907 71.488C76.0307 72.52 76.4507 74.044 76.4507 76.06C76.4507 78.076 76.0307 79.6 75.1907 80.632C74.3627 81.664 73.1387 82.18 71.5187 82.18ZM71.5187 79.768C71.9627 79.768 72.3227 79.648 72.5987 79.408C72.8747 79.156 73.0727 78.76 73.1927 78.22C73.3247 77.668 73.3907 76.948 73.3907 76.06C73.3907 75.172 73.3247 74.458 73.1927 73.918C73.0727 73.366 72.8747 72.97 72.5987 72.73C72.3227 72.478 71.9627 72.352 71.5187 72.352C71.0867 72.352 70.7267 72.478 70.4387 72.73C70.1627 72.97 69.9587 73.366 69.8267 73.918C69.7067 74.458 69.6467 75.172 69.6467 76.06C69.6467 76.948 69.7067 77.668 69.8267 78.22C69.9587 78.76 70.1627 79.156 70.4387 79.408C70.7267 79.648 71.0867 79.768 71.5187 79.768ZM80.4566 82L88.7186 70.102H91.0586L82.7966 82H80.4566ZM81.1946 69.94C81.8786 69.94 82.4666 70.084 82.9586 70.372C83.4626 70.648 83.8526 71.038 84.1286 71.542C84.4046 72.046 84.5426 72.64 84.5426 73.324C84.5426 74.008 84.4046 74.602 84.1286 75.106C83.8526 75.61 83.4626 76.006 82.9586 76.294C82.4666 76.57 81.8786 76.708 81.1946 76.708C80.5226 76.708 79.9346 76.57 79.4306 76.294C78.9386 76.006 78.5486 75.61 78.2606 75.106C77.9846 74.602 77.8466 74.008 77.8466 73.324C77.8466 72.64 77.9846 72.046 78.2606 71.542C78.5486 71.038 78.9386 70.648 79.4306 70.372C79.9346 70.084 80.5226 69.94 81.1946 69.94ZM81.1946 71.992C80.9666 71.992 80.7746 72.046 80.6186 72.154C80.4626 72.25 80.3426 72.4 80.2586 72.604C80.1746 72.796 80.1326 73.036 80.1326 73.324C80.1326 73.6 80.1746 73.84 80.2586 74.044C80.3426 74.248 80.4626 74.404 80.6186 74.512C80.7746 74.608 80.9666 74.656 81.1946 74.656C81.4346 74.656 81.6326 74.608 81.7886 74.512C81.9446 74.404 82.0646 74.248 82.1486 74.044C82.2326 73.84 82.2746 73.6 82.2746 73.324C82.2746 73.036 82.2326 72.796 82.1486 72.604C82.0646 72.4 81.9446 72.25 81.7886 72.154C81.6326 72.046 81.4346 71.992 81.1946 71.992ZM90.2846 75.412C90.9566 75.412 91.5446 75.556 92.0486 75.844C92.5526 76.12 92.9426 76.51 93.2186 77.014C93.4946 77.518 93.6326 78.112 93.6326 78.796C93.6326 79.48 93.4946 80.074 93.2186 80.578C92.9426 81.082 92.5526 81.478 92.0486 81.766C91.5446 82.042 90.9566 82.18 90.2846 82.18C89.6126 82.18 89.0246 82.042 88.5206 81.766C88.0166 81.478 87.6266 81.082 87.3506 80.578C87.0746 80.074 86.9366 79.48 86.9366 78.796C86.9366 78.112 87.0746 77.518 87.3506 77.014C87.6266 76.51 88.0166 76.12 88.5206 75.844C89.0246 75.556 89.6126 75.412 90.2846 75.412ZM90.2846 77.464C90.0566 77.464 89.8586 77.518 89.6906 77.626C89.5346 77.722 89.4146 77.872 89.3306 78.076C89.2466 78.268 89.2046 78.508 89.2046 78.796C89.2046 79.072 89.2466 79.312 89.3306 79.516C89.4146 79.72 89.5346 79.876 89.6906 79.984C89.8586 80.08 90.0566 80.128 90.2846 80.128C90.5246 80.128 90.7226 80.08 90.8786 79.984C91.0346 79.876 91.1546 79.72 91.2386 79.516C91.3226 79.312 91.3646 79.072 91.3646 78.796C91.3646 78.508 91.3226 78.268 91.2386 78.076C91.1546 77.872 91.0346 77.722 90.8786 77.626C90.7226 77.518 90.5246 77.464 90.2846 77.464Z" fill="#151B38"/>
</svg>
