<svg width="22" height="22" viewBox="0 0 22 22" fill="none"
    xmlns="http://www.w3.org/2000/svg">
    <path d="M8.75747 8.25004C8.97298 7.6374 9.39836 7.12081 9.95826 6.79175C10.5182 6.46269 11.1765 6.3424 11.8165 6.45219C12.4566 6.56199 13.0372 6.89477 13.4555 7.39161C13.8737 7.88844 14.1026 8.51727 14.1016 9.16671C14.1016 11 11.3516 11.9167 11.3516 11.9167M11.425 15.5834H11.4341M20.5916 11C20.5916 16.0627 16.4876 20.1667 11.425 20.1667C6.36236 20.1667 2.2583 16.0627 2.2583 11C2.2583 5.93743 6.36236 1.83337 11.425 1.83337C16.4876 1.83337 20.5916 5.93743 20.5916 11Z" stroke="white" stroke-opacity="0.75" stroke-width="1.5" stroke-linecap="round" stroke-linejoin="round"/>
</svg>
