<svg width="130" height="124" viewBox="0 0 130 124" fill="none"
    xmlns="http://www.w3.org/2000/svg">
    <rect x="0.5" y="0.5" width="129" height="123" rx="7.5" fill="#ECF1F4" stroke="#404059" stroke-dasharray="5 5"/>
    <path d="M30.9218 101.18C30.2538 101.18 29.6638 101.042 29.1518 100.766C28.6398 100.49 28.2378 100.104 27.9458 99.608C27.6578 99.108 27.5138 98.522 27.5138 97.85V92.366L28.5938 92.36V97.76C28.5938 98.168 28.6618 98.524 28.7978 98.828C28.9378 99.128 29.1218 99.378 29.3498 99.578C29.5778 99.778 29.8278 99.928 30.0998 100.028C30.3758 100.124 30.6498 100.172 30.9218 100.172C31.1978 100.172 31.4738 100.122 31.7498 100.022C32.0258 99.922 32.2758 99.774 32.4998 99.578C32.7278 99.378 32.9098 99.126 33.0458 98.822C33.1818 98.518 33.2498 98.164 33.2498 97.76V92.36H34.3298V97.85C34.3298 98.518 34.1838 99.102 33.8918 99.602C33.6038 100.102 33.2038 100.49 32.6918 100.766C32.1798 101.042 31.5898 101.18 30.9218 101.18ZM38.9859 101.18C38.3779 101.18 37.8659 101.03 37.4499 100.73C37.0339 100.426 36.7179 100.016 36.5019 99.5C36.2899 98.98 36.1839 98.398 36.1839 97.754C36.1839 97.102 36.2899 96.518 36.5019 96.002C36.7179 95.486 37.0339 95.08 37.4499 94.784C37.8699 94.488 38.3839 94.34 38.9919 94.34C39.5919 94.34 40.1079 94.49 40.5399 94.79C40.9759 95.086 41.3099 95.492 41.5419 96.008C41.7739 96.524 41.8899 97.106 41.8899 97.754C41.8899 98.402 41.7739 98.984 41.5419 99.5C41.3099 100.016 40.9759 100.426 40.5399 100.73C40.1079 101.03 39.5899 101.18 38.9859 101.18ZM36.0039 103.88V94.52H36.9579V99.29H37.0779V103.88H36.0039ZM38.8539 100.202C39.2819 100.202 39.6359 100.094 39.9159 99.878C40.1959 99.662 40.4059 99.37 40.5459 99.002C40.6859 98.63 40.7559 98.214 40.7559 97.754C40.7559 97.298 40.6859 96.886 40.5459 96.518C40.4099 96.15 40.1979 95.858 39.9099 95.642C39.6259 95.426 39.2639 95.318 38.8239 95.318C38.4039 95.318 38.0559 95.422 37.7799 95.63C37.5039 95.834 37.2979 96.12 37.1619 96.488C37.0259 96.852 36.9579 97.274 36.9579 97.754C36.9579 98.226 37.0239 98.648 37.1559 99.02C37.2919 99.388 37.4999 99.678 37.7799 99.89C38.0599 100.098 38.4179 100.202 38.8539 100.202ZM43.3252 101V92.18H44.3932V101H43.3252ZM48.9535 101.18C48.3095 101.18 47.7535 101.034 47.2855 100.742C46.8215 100.45 46.4635 100.046 46.2115 99.53C45.9595 99.014 45.8335 98.422 45.8335 97.754C45.8335 97.074 45.9615 96.478 46.2175 95.966C46.4735 95.454 46.8355 95.056 47.3035 94.772C47.7715 94.484 48.3215 94.34 48.9535 94.34C49.6015 94.34 50.1595 94.486 50.6275 94.778C51.0955 95.066 51.4535 95.468 51.7015 95.984C51.9535 96.496 52.0795 97.086 52.0795 97.754C52.0795 98.43 51.9535 99.026 51.7015 99.542C51.4495 100.054 51.0895 100.456 50.6215 100.748C50.1535 101.036 49.5975 101.18 48.9535 101.18ZM48.9535 100.166C49.6255 100.166 50.1255 99.942 50.4535 99.494C50.7815 99.046 50.9455 98.466 50.9455 97.754C50.9455 97.022 50.7795 96.44 50.4475 96.008C50.1155 95.572 49.6175 95.354 48.9535 95.354C48.5015 95.354 48.1295 95.456 47.8375 95.66C47.5455 95.864 47.3275 96.146 47.1835 96.506C47.0395 96.866 46.9675 97.282 46.9675 97.754C46.9675 98.482 47.1355 99.066 47.4715 99.506C47.8075 99.946 48.3015 100.166 48.9535 100.166ZM55.2425 101.18C54.7585 101.18 54.3525 101.092 54.0245 100.916C53.7005 100.736 53.4545 100.5 53.2865 100.208C53.1225 99.916 53.0405 99.596 53.0405 99.248C53.0405 98.908 53.1045 98.614 53.2325 98.366C53.3645 98.114 53.5485 97.906 53.7845 97.742C54.0205 97.574 54.3025 97.442 54.6305 97.346C54.9385 97.262 55.2825 97.19 55.6625 97.13C56.0465 97.066 56.4345 97.008 56.8265 96.956C57.2185 96.904 57.5845 96.854 57.9245 96.806L57.5405 97.028C57.5525 96.452 57.4365 96.026 57.1925 95.75C56.9525 95.474 56.5365 95.336 55.9445 95.336C55.5525 95.336 55.2085 95.426 54.9125 95.606C54.6205 95.782 54.4145 96.07 54.2945 96.47L53.2805 96.164C53.4365 95.596 53.7385 95.15 54.1865 94.826C54.6345 94.502 55.2245 94.34 55.9565 94.34C56.5445 94.34 57.0485 94.446 57.4685 94.658C57.8925 94.866 58.1965 95.182 58.3805 95.606C58.4725 95.806 58.5305 96.024 58.5545 96.26C58.5785 96.492 58.5905 96.736 58.5905 96.992V101H57.6425V99.446L57.8645 99.59C57.6205 100.114 57.2785 100.51 56.8385 100.778C56.4025 101.046 55.8705 101.18 55.2425 101.18ZM55.4045 100.286C55.7885 100.286 56.1205 100.218 56.4005 100.082C56.6845 99.942 56.9125 99.76 57.0845 99.536C57.2565 99.308 57.3685 99.06 57.4205 98.792C57.4805 98.592 57.5125 98.37 57.5165 98.126C57.5245 97.878 57.5285 97.688 57.5285 97.556L57.9005 97.718C57.5525 97.766 57.2105 97.812 56.8745 97.856C56.5385 97.9 56.2205 97.948 55.9205 98C55.6205 98.048 55.3505 98.106 55.1105 98.174C54.9345 98.23 54.7685 98.302 54.6125 98.39C54.4605 98.478 54.3365 98.592 54.2405 98.732C54.1485 98.868 54.1025 99.038 54.1025 99.242C54.1025 99.418 54.1465 99.586 54.2345 99.746C54.3265 99.906 54.4665 100.036 54.6545 100.136C54.8465 100.236 55.0965 100.286 55.4045 100.286ZM62.6945 101.18C62.0905 101.18 61.5725 101.03 61.1405 100.73C60.7085 100.426 60.3745 100.016 60.1385 99.5C59.9065 98.984 59.7905 98.402 59.7905 97.754C59.7905 97.106 59.9065 96.524 60.1385 96.008C60.3745 95.492 60.7085 95.086 61.1405 94.79C61.5725 94.49 62.0885 94.34 62.6885 94.34C63.3005 94.34 63.8145 94.488 64.2305 94.784C64.6465 95.08 64.9605 95.486 65.1725 96.002C65.3885 96.518 65.4965 97.102 65.4965 97.754C65.4965 98.398 65.3885 98.98 65.1725 99.5C64.9605 100.016 64.6465 100.426 64.2305 100.73C63.8145 101.03 63.3025 101.18 62.6945 101.18ZM62.8265 100.202C63.2625 100.202 63.6205 100.098 63.9005 99.89C64.1805 99.678 64.3865 99.388 64.5185 99.02C64.6545 98.648 64.7225 98.226 64.7225 97.754C64.7225 97.274 64.6545 96.852 64.5185 96.488C64.3865 96.12 64.1825 95.834 63.9065 95.63C63.6305 95.422 63.2805 95.318 62.8565 95.318C62.4165 95.318 62.0525 95.426 61.7645 95.642C61.4805 95.858 61.2685 96.15 61.1285 96.518C60.9925 96.886 60.9245 97.298 60.9245 97.754C60.9245 98.214 60.9945 98.63 61.1345 99.002C61.2745 99.37 61.4845 99.662 61.7645 99.878C62.0485 100.094 62.4025 100.202 62.8265 100.202ZM64.7225 101V96.23H64.6025V92.36H65.6765V101H64.7225ZM69.8799 101V92.36H70.9479V101H69.8799ZM80.4942 101L80.5002 96.854C80.5002 96.37 80.3702 95.992 80.1102 95.72C79.8542 95.444 79.5202 95.306 79.1082 95.306C78.8682 95.306 78.6402 95.362 78.4242 95.474C78.2082 95.582 78.0322 95.754 77.8962 95.99C77.7602 96.222 77.6922 96.52 77.6922 96.884L77.1282 96.656C77.1202 96.196 77.2142 95.794 77.4102 95.45C77.6102 95.102 77.8822 94.832 78.2262 94.64C78.5702 94.448 78.9582 94.352 79.3902 94.352C80.0662 94.352 80.5982 94.558 80.9862 94.97C81.3742 95.378 81.5682 95.928 81.5682 96.62L81.5622 101H80.4942ZM72.7422 101V94.52H73.6962V96.254H73.8162V101H72.7422ZM76.6242 101L76.6302 96.896C76.6302 96.4 76.5022 96.012 76.2462 95.732C75.9902 95.448 75.6502 95.306 75.2262 95.306C74.8062 95.306 74.4662 95.45 74.2062 95.738C73.9462 96.026 73.8162 96.408 73.8162 96.884L73.2522 96.548C73.2522 96.128 73.3522 95.752 73.5522 95.42C73.7522 95.088 74.0242 94.828 74.3682 94.64C74.7122 94.448 75.1022 94.352 75.5382 94.352C75.9742 94.352 76.3542 94.444 76.6782 94.628C77.0022 94.812 77.2522 95.076 77.4282 95.42C77.6042 95.76 77.6922 96.166 77.6922 96.638L77.6862 101H76.6242ZM84.973 101.18C84.489 101.18 84.083 101.092 83.755 100.916C83.431 100.736 83.185 100.5 83.017 100.208C82.853 99.916 82.771 99.596 82.771 99.248C82.771 98.908 82.835 98.614 82.963 98.366C83.095 98.114 83.279 97.906 83.515 97.742C83.751 97.574 84.033 97.442 84.361 97.346C84.669 97.262 85.013 97.19 85.393 97.13C85.777 97.066 86.165 97.008 86.557 96.956C86.949 96.904 87.315 96.854 87.655 96.806L87.271 97.028C87.283 96.452 87.167 96.026 86.923 95.75C86.683 95.474 86.267 95.336 85.675 95.336C85.283 95.336 84.939 95.426 84.643 95.606C84.351 95.782 84.145 96.07 84.025 96.47L83.011 96.164C83.167 95.596 83.469 95.15 83.917 94.826C84.365 94.502 84.955 94.34 85.687 94.34C86.275 94.34 86.779 94.446 87.199 94.658C87.623 94.866 87.927 95.182 88.111 95.606C88.203 95.806 88.261 96.024 88.285 96.26C88.309 96.492 88.321 96.736 88.321 96.992V101H87.373V99.446L87.595 99.59C87.351 100.114 87.009 100.51 86.569 100.778C86.133 101.046 85.601 101.18 84.973 101.18ZM85.135 100.286C85.519 100.286 85.851 100.218 86.131 100.082C86.415 99.942 86.643 99.76 86.815 99.536C86.987 99.308 87.099 99.06 87.151 98.792C87.211 98.592 87.243 98.37 87.247 98.126C87.255 97.878 87.259 97.688 87.259 97.556L87.631 97.718C87.283 97.766 86.941 97.812 86.605 97.856C86.269 97.9 85.951 97.948 85.651 98C85.351 98.048 85.081 98.106 84.841 98.174C84.665 98.23 84.499 98.302 84.343 98.39C84.191 98.478 84.067 98.592 83.971 98.732C83.879 98.868 83.833 99.038 83.833 99.242C83.833 99.418 83.877 99.586 83.965 99.746C84.057 99.906 84.197 100.036 84.385 100.136C84.577 100.236 84.827 100.286 85.135 100.286ZM92.503 104.06C92.163 104.06 91.831 104.008 91.507 103.904C91.183 103.8 90.885 103.642 90.613 103.43C90.345 103.222 90.121 102.958 89.941 102.638L90.919 102.122C91.079 102.438 91.305 102.668 91.597 102.812C91.893 102.956 92.197 103.028 92.509 103.028C92.921 103.028 93.263 102.952 93.535 102.8C93.807 102.652 94.007 102.43 94.135 102.134C94.267 101.838 94.331 101.47 94.327 101.03V99.26H94.453V94.52H95.401V101.042C95.401 101.218 95.395 101.388 95.383 101.552C95.375 101.716 95.355 101.878 95.323 102.038C95.239 102.498 95.073 102.876 94.825 103.172C94.577 103.472 94.257 103.694 93.865 103.838C93.473 103.986 93.019 104.06 92.503 104.06ZM92.425 101.18C91.821 101.18 91.303 101.03 90.871 100.73C90.439 100.426 90.105 100.016 89.869 99.5C89.637 98.984 89.521 98.402 89.521 97.754C89.521 97.106 89.637 96.524 89.869 96.008C90.105 95.492 90.439 95.086 90.871 94.79C91.303 94.49 91.819 94.34 92.419 94.34C93.031 94.34 93.545 94.488 93.961 94.784C94.377 95.08 94.691 95.486 94.903 96.002C95.119 96.518 95.227 97.102 95.227 97.754C95.227 98.398 95.119 98.98 94.903 99.5C94.691 100.016 94.377 100.426 93.961 100.73C93.545 101.03 93.033 101.18 92.425 101.18ZM92.557 100.202C92.993 100.202 93.351 100.098 93.631 99.89C93.911 99.678 94.117 99.388 94.249 99.02C94.385 98.648 94.453 98.226 94.453 97.754C94.453 97.274 94.385 96.852 94.249 96.488C94.117 96.12 93.913 95.834 93.637 95.63C93.361 95.422 93.011 95.318 92.587 95.318C92.147 95.318 91.783 95.426 91.495 95.642C91.211 95.858 90.999 96.15 90.859 96.518C90.723 96.886 90.655 97.298 90.655 97.754C90.655 98.214 90.725 98.63 90.865 99.002C91.005 99.37 91.215 99.662 91.495 99.878C91.779 100.094 92.133 100.202 92.557 100.202ZM99.8843 101.18C99.2483 101.18 98.6923 101.04 98.2163 100.76C97.7443 100.476 97.3763 100.082 97.1123 99.578C96.8483 99.07 96.7163 98.478 96.7163 97.802C96.7163 97.094 96.8463 96.482 97.1063 95.966C97.3663 95.446 97.7283 95.046 98.1923 94.766C98.6603 94.482 99.2083 94.34 99.8363 94.34C100.488 94.34 101.042 94.49 101.498 94.79C101.958 95.09 102.302 95.518 102.53 96.074C102.762 96.63 102.862 97.292 102.83 98.06H101.75V97.676C101.738 96.88 101.576 96.286 101.264 95.894C100.952 95.498 100.488 95.3 99.8723 95.3C99.2123 95.3 98.7103 95.512 98.3663 95.936C98.0223 96.36 97.8503 96.968 97.8503 97.76C97.8503 98.524 98.0223 99.116 98.3663 99.536C98.7103 99.956 99.2003 100.166 99.8363 100.166C100.264 100.166 100.636 100.068 100.952 99.872C101.268 99.676 101.516 99.394 101.696 99.026L102.722 99.38C102.47 99.952 102.09 100.396 101.582 100.712C101.078 101.024 100.512 101.18 99.8843 101.18ZM97.4903 98.06V97.202H102.278V98.06H97.4903Z" fill="#404059"/>
    <path fill-rule="evenodd" clip-rule="evenodd" d="M56.9999 35.7584C57.74 35.2639 58.61 35 59.5 35C60.0714 35 60.5346 35.4632 60.5346 36.0346C60.5346 36.6061 60.0714 37.0693 59.5 37.0693C59.0193 37.0693 58.5493 37.2118 58.1496 37.4789C57.7498 37.746 57.4383 38.1256 57.2543 38.5698C57.0703 39.014 57.0222 39.5027 57.116 39.9742C57.2098 40.4457 57.4413 40.8788 57.7812 41.2188C58.1212 41.5587 58.5543 41.7902 59.0258 41.884C59.4973 41.9778 59.986 41.9297 60.4302 41.7457C60.8744 41.5617 61.254 41.2502 61.5211 40.8504C61.7882 40.4507 61.9307 39.9807 61.9307 39.5C61.9307 38.9286 62.3939 38.4654 62.9654 38.4654C63.5368 38.4654 64 38.9286 64 39.5C64 40.39 63.7361 41.26 63.2416 42.0001C62.7471 42.7401 62.0443 43.3169 61.2221 43.6575C60.3998 43.998 59.495 44.0872 58.6221 43.9135C57.7492 43.7399 56.9474 43.3113 56.318 42.682C55.6887 42.0526 55.2601 41.2508 55.0865 40.3779C54.9128 39.505 55.0019 38.6002 55.3425 37.7779C55.6831 36.9557 56.2599 36.2529 56.9999 35.7584Z" fill="#404059"/>
    <path fill-rule="evenodd" clip-rule="evenodd" d="M81.9802 41C82.5434 41 83 41.4661 83 42.041V50.7574C83 55.2164 82.1375 58.6085 79.9439 60.8604C77.7489 63.1136 74.4407 64 70.094 64H59.906C55.5606 64 52.2526 63.114 50.0572 60.861C47.8632 58.6094 47 55.2173 47 50.7574L47 40.541C47 39.9661 47.4566 39.5 48.0198 39.5C48.5829 39.5 49.0395 39.9661 49.0395 40.541V50.7574C49.0395 55.014 49.8759 57.7227 51.5032 59.3928C53.1292 61.0615 55.7643 61.9181 59.906 61.9181H70.094C74.2371 61.9181 76.8721 61.0611 78.4977 59.3923C80.1248 57.7221 80.9605 55.0134 80.9605 50.7574V42.041C80.9605 41.4661 81.417 41 81.9802 41Z" fill="#404059"/>
    <path fill-rule="evenodd" clip-rule="evenodd" d="M50.0997 31.0753C52.3242 28.8682 55.6763 28 60.0827 28H66.9716C67.5396 28 68 28.4568 68 29.0203C68 29.5838 67.5396 30.0406 66.9716 30.0406H60.0827C55.8792 30.0406 53.2042 30.8811 51.5541 32.5182C49.9039 34.1554 49.0568 36.8094 49.0568 40.9797C49.0568 41.5432 48.5964 42 48.0284 42C47.4604 42 47 41.5432 47 40.9797C47 36.608 47.8751 33.2823 50.0997 31.0753Z" fill="#404059"/>
    <path fill-rule="evenodd" clip-rule="evenodd" d="M70 34C70 33.4477 70.4792 33 71.0704 33H80.9296C81.5208 33 82 33.4477 82 34C82 34.5523 81.5208 35 80.9296 35H71.0704C70.4792 35 70 34.5523 70 34Z" fill="#404059"/>
    <path fill-rule="evenodd" clip-rule="evenodd" d="M76 28C76.5523 28 77 28.4792 77 29.0704V38.9296C77 39.5208 76.5523 40 76 40C75.4477 40 75 39.5208 75 38.9296V29.0704C75 28.4792 75.4477 28 76 28Z" fill="#404059"/>
    <path fill-rule="evenodd" clip-rule="evenodd" d="M75.2768 47.675L68.4017 53.8014L68.3834 53.8173C67.5476 54.5267 66.4988 54.9145 65.4165 54.9145C64.3341 54.9145 63.2854 54.5267 62.4495 53.8173C62.4405 53.8096 62.4316 53.8018 62.4229 53.7939L61.8922 53.3101C61.4477 52.941 60.9019 52.7253 60.3318 52.694C59.7582 52.6624 59.1897 52.8191 58.7078 53.1414L50.5516 58.8241C50.0963 59.1413 49.478 59.0177 49.1705 58.5481C48.863 58.0784 48.9828 57.4405 49.4381 57.1233L57.6148 51.4264C58.4515 50.8634 59.4402 50.5897 60.4377 50.6445C61.4353 50.6994 62.3901 51.0802 63.164 51.7318C63.1741 51.7402 63.184 51.7489 63.1937 51.7578L63.726 52.2429C64.2037 52.6434 64.8006 52.8622 65.4165 52.8622C66.034 52.8622 66.6326 52.6422 67.1109 52.2396L73.986 46.1131L74.0043 46.0972C74.8401 45.3878 75.8889 45 76.9713 45C78.0536 45 79.1024 45.3878 79.9382 46.0972L79.9565 46.1132L82.6555 48.5185C83.0713 48.889 83.1171 49.537 82.758 49.9659C82.3989 50.3947 81.7707 50.4421 81.355 50.0716L78.6657 47.6749C78.1873 47.2723 77.5888 47.0523 76.9713 47.0523C76.3537 47.0523 75.7551 47.2723 75.2768 47.675Z" fill="#404059"/>
</svg>
