<svg width="22" height="22" viewBox="0 0 22 22" fill="none"
    xmlns="http://www.w3.org/2000/svg">
    <path d="M14.6667 7.3333V4.12556C14.6667 3.36314 14.6667 2.98192 14.5061 2.74765C14.3657 2.54296 14.1484 2.40392 13.9038 2.36229C13.6238 2.31464 13.2776 2.47439 12.5854 2.79389L4.4541 6.54679C3.83671 6.83174 3.52802 6.97421 3.30193 7.19517C3.10205 7.39051 2.94948 7.62897 2.85588 7.89231C2.75 8.19019 2.75 8.53017 2.75 9.21014V13.75M15.125 13.2916H15.1342M2.75 10.2666L2.75 16.3166C2.75 17.3434 2.75 17.8568 2.94982 18.2489C3.12559 18.5939 3.40605 18.8744 3.75102 19.0501C4.14319 19.25 4.65657 19.25 5.68333 19.25H16.3167C17.3434 19.25 17.8568 19.25 18.249 19.0501C18.5939 18.8744 18.8744 18.5939 19.0502 18.2489C19.25 17.8568 19.25 17.3434 19.25 16.3166V10.2666C19.25 9.23987 19.25 8.72649 19.0502 8.33432C18.8744 7.98935 18.5939 7.70889 18.249 7.53312C17.8568 7.3333 17.3434 7.3333 16.3167 7.3333L5.68333 7.3333C4.65657 7.3333 4.14319 7.3333 3.75102 7.53312C3.40605 7.70889 3.12559 7.98935 2.94982 8.33431C2.75 8.72649 2.75 9.23987 2.75 10.2666ZM15.5833 13.2916C15.5833 13.5448 15.3781 13.75 15.125 13.75C14.8719 13.75 14.6667 13.5448 14.6667 13.2916C14.6667 13.0385 14.8719 12.8333 15.125 12.8333C15.3781 12.8333 15.5833 13.0385 15.5833 13.2916Z" stroke="white" stroke-width="1.5" stroke-linecap="round" stroke-linejoin="round"/>
</svg>
